<svg xmlns="http://www.w3.org/2000/svg" width="500" height="500"><path fill="#F4F4F4" d="M0 0h500v500H0z"/><path fill="#1D19FE" d="M134 214c3.704 2.027 5.654 3.48 8 7 1.777 7.98-2.153 13.776-6.25 20.313l-1.91 3.143q-1.95 3.205-3.92 6.4a402 402 0 0 0-5.346 9.05l-1.606 2.769a729 729 0 0 0-2.97 5.168c-2.468 4.183-4.324 7.245-8.998 9.157-4.89.543-6.995.521-11.375-1.75-3.597-3.083-4.433-4.62-4.984-9.293.49-5.392 2.71-8.887 5.484-13.457l1.605-2.72c1.74-2.937 3.505-5.858 5.27-8.78l3.809-6.383q1.874-3.122 3.754-6.242l1.803-2.998 1.7-2.791 1.499-2.467c3.859-5.696 7.556-6.702 14.435-6.119"/><path fill="#1E1AFE" d="M90.375 215.813c2.636 2.196 4.422 3.78 4.926 7.273.024 4.802-.123 8.055-3.301 11.914-3.818 3.403-6.626 3.506-11.59 3.36-3.406-.509-5.114-1.848-7.41-4.36-2.695-4.043-2.665-7.251-2-12 1.607-3.157 2.974-5.194 5.75-7.375 5.247-1.457 8.906-1.347 13.625 1.188"/></svg>