<svg xmlns="http://www.w3.org/2000/svg" width="500" height="500"><path fill="#F3F3F3" d="M0 0h500v500H0z"/><path fill="#1D19FE" d="M134 214c3.704 2.027 5.654 3.48 8 7 1.777 7.98-2.153 13.776-6.25 20.313l-1.91 3.143q-1.95 3.205-3.92 6.4a402 402 0 0 0-5.346 9.05l-1.606 2.769a729 729 0 0 0-2.97 5.168c-2.468 4.183-4.324 7.245-8.998 9.157-4.89.543-6.995.521-11.375-1.75-3.597-3.083-4.433-4.62-4.984-9.293.49-5.392 2.71-8.887 5.484-13.457l1.605-2.72c1.74-2.937 3.505-5.858 5.27-8.78l3.809-6.383q1.874-3.122 3.754-6.242l1.803-2.998 1.7-2.791 1.499-2.467c3.859-5.696 7.556-6.702 14.435-6.119"/><path fill="#0E0E0E" d="M167 215c7 0 7 0 8.69 1.215l1.162 1.722 1.37 1.94 1.403 2.123q1.551 2.208 3.113 4.41l1.612 2.301c2.668 3.701 5.558 7.21 8.463 10.726 4.492 5.454 8.846 10.982 13.187 16.563l1-41h7v55c-6 0-6 0-8.64-2.387a126 126 0 0 1-2.61-3.3l-1.43-1.78A392 392 0 0 1 197 257l-2.547-3.266c-2.5-3.232-4.976-6.483-7.453-9.734l-11-14-1 40h-8z"/><path fill="#0A0A0A" d="M252.176 230.59c4.164 3.22 7.167 7.44 8.824 12.41v8h-34c3.768 9.425 3.768 9.425 7.875 12.125 4.771 1.336 8.38 1.69 12.938-.437 2.407-1.672 2.407-1.672 4.187-4.688 3.625-.187 3.625-.187 7 0-.081 2.766-.567 4.511-2.414 6.598-5.822 5.218-11.258 6.95-19.055 6.785-5.414-.819-9.117-3.93-12.844-7.758-4.138-6.438-5.928-11.958-4.687-19.625 2.625-7.08 6.78-11.538 13.25-15.312 6.613-1.654 12.922-1.496 18.926 1.902"/><path fill="#0C0C0C" d="M370 231c3.255 3.34 4 4.228 4 9h-7l-.875-1.937c-.953-2.215-.953-2.215-3.125-3.063a63 63 0 0 0-4.5-.187l-2.406-.043c-2.314.033-2.314.033-4.094 2.23-.167 3.083-.167 3.083 0 6q1.936.66 3.875 1.313l2.473.835c2.637.847 5.291 1.566 7.964 2.29 6.717 2.068 6.717 2.068 8.688 5.562.734 4.139.98 8.1-.988 11.914-2.283 2.87-4.625 4.773-8.012 6.086-6.618.658-13.458 1.121-19-3-3.478-3.478-4.546-6.122-5-11h7l.875 2.375c.974 2.722.974 2.722 3.125 4.625 2.829.32 2.829.32 6 .25l3.25.016c2.894.014 2.894.014 4.75-2.266.167-3.083.167-3.083 0-6-3.476-1.96-6.605-3.206-10.5-3.937-4.22-.862-7.138-2.275-10.5-5.063-2.356-3.755-2.201-6.531-1.61-10.809.96-3.448 2.793-5.094 5.61-7.191 6.66-2.178 14.175-2.022 20 2"/><path fill="#0A0A0A" d="M301 229h7l.044 2.491c.075 3.733.171 7.464.269 11.196l.068 3.92.107 3.78.08 3.475c.473 3.438 1.377 5.366 3.432 8.138 3.928 1.964 8.718 1.475 13 1 2.656-1.897 3.572-3.145 5-6 .154-2.104.25-4.212.316-6.32l.127-3.809.12-3.996.13-4.02q.16-4.928.307-9.855h7c.147 4.458.235 8.915.313 13.375l.126 3.793c.106 8.03-.705 14.174-5.439 20.832-5.094 4.1-10.816 4.42-17.176 4.336-4.426-.527-7.773-2.074-10.824-5.336-4.984-7.34-4.47-14.35-4.25-23q.03-2.04.055-4.082.07-4.96.195-9.918"/><path fill="#080808" d="M261 229c2.998-.359 5.093-.597 8 0 2.4 1.972 3.885 4.37 5.5 7l1.336 2.023A240 240 0 0 1 279 243c3.05-2.838 5.107-5.692 7.25-9.25 3.079-4.555 3.079-4.555 5.98-5.398 2.207.023 2.207.023 5.77.648q-1.59 2.534-3.187 5.063l-1.918 3.042a95 95 0 0 1-4.895 6.77c-2.244 2.833-2.244 2.833-1.867 5.441 1.085 3.36 2.738 5.843 4.742 8.746l2.117 3.098a130 130 0 0 0 3.766 5.086C298 268 298 268 298 270c-3.034.389-5.069.645-8 0-2.43-2.139-3.9-4.709-5.5-7.5l-1.336-2.168A260 260 0 0 1 280 255c-2.736 3.3-5.02 6.658-7.25 10.313-3.066 4.49-3.066 4.49-5.98 5.332-2.207-.02-2.207-.02-5.77-.645a108 108 0 0 1 10.742-16.64c1.429-2.25 1.429-2.25 1.301-4.641-1.57-4.094-4.053-7.426-6.606-10.969a2040 2040 0 0 1-3.066-4.328l-1.377-1.92C261 230 261 230 261 229"/><path fill="#1E1AFE" d="M90.375 215.813c2.636 2.196 4.422 3.78 4.926 7.273.024 4.802-.123 8.055-3.301 11.914-3.818 3.403-6.626 3.506-11.59 3.36-3.406-.509-5.114-1.848-7.41-4.36-2.695-4.043-2.665-7.251-2-12 1.607-3.157 2.974-5.194 5.75-7.375 5.247-1.457 8.906-1.347 13.625 1.188"/><path fill="#EEE" d="M246 235c3.91 1.99 5.577 3.365 8 7v3h-26c.934-4.668 1.308-6.234 4.992-9.047 4.163-1.976 8.548-1.682 13.008-.953"/></svg>